<?xml version="1.0" encoding="UTF-8"?>
<svg xmlns="http://www.w3.org/2000/svg" version="1.1" xmlns:xlink="http://www.w3.org/1999/xlink" viewBox="0 0 222.9 182.4">
    <defs>
        <style>
            .logo-fairy {
            fill: url(#logoGradient);
            }
        </style>
        <linearGradient id="logoGradient" x1="50.7" y1="118.9" x2="222.8" y2="118.9" gradientTransform="translate(0 187.1) scale(1 -1)" gradientUnits="userSpaceOnUse">
            <stop offset="0" stop-color="#b17f4a"/>
            <stop offset=".4" stop-color="#fdca6f"/>
            <stop offset="1" stop-color="#fdd69a"/>
        </linearGradient>
    </defs>
    <g class="logo-label isMain" fill="#ffffff">
        <path d="M0,112v-38.4h6.6c2,0,3.6.4,4.7,1.3,1.1.9,1.9,2.1,2.3,3.7.4,1.6.6,3.5.6,5.7v16.7c0,2.6-.3,4.7-.8,6.4-.5,1.6-1.3,2.8-2.5,3.6s-2.7,1.1-4.6,1.1H0ZM3.9,108.8h2.5c.9,0,1.6-.2,2.2-.6.6-.4,1-1.1,1.3-2.2.3-1.1.4-2.7.4-4.7v-17.1c0-2.6-.3-4.5-.9-5.6-.6-1.1-1.6-1.7-2.9-1.7h-2.6v31.9Z"/>
        <path d="M27.1,112.5c-1.9,0-3.4-.4-4.4-1.3s-1.8-2.1-2.2-3.8-.6-3.9-.6-6.5v-16.7c0-2.2.2-4.1.6-5.8.4-1.6,1.1-2.9,2.2-3.9,1.1-.9,2.6-1.4,4.7-1.4s2.8.3,3.7.8c.9.5,1.6,1.3,2.1,2.2.5,1,.8,2.1,1,3.5.2,1.4.3,2.9.3,4.5v16.7c0,2.6-.2,4.8-.6,6.5s-1.1,3-2.2,3.8c-1.2.9-2.7,1.4-4.6,1.4ZM27.1,109.1c.9,0,1.5-.3,2-.8s.8-1.4,1-2.5.3-2.8.3-4.9v-16.9c0-2.6-.2-4.4-.6-5.6-.4-1.2-1.2-1.8-2.5-1.8s-2.3.6-2.7,1.8c-.5,1.2-.7,3.1-.7,5.6v17c0,2.1,0,3.7.3,4.9s.5,2,1,2.5,1,.7,1.9.7Z"/>
        <path d="M40.4,112v-38.4h4.5l6,31.4,5.7-31.4h4.5v38.4h-3.4v-15.4l.4-14.8-5.6,29.8h-3.2l-5.9-29.8.4,14.8v15.4h-3.4Z"/>
        <path d="M65.4,112l6-38.4h4.5l6.6,38.4h-3.7l-1.2-7.6h-7.3l-1.1,7.6h-3.8ZM70.7,101.4h6.3l-3.2-21h0l-3,21Z"/>
        <path d="M86.7,112v-38.4h3.9v38.4h-3.9Z"/>
        <path d="M97.4,112v-38.4h2.9l9.1,27.7-.4-12.1v-15.6h3.5v38.4h-3l-8.7-27.5.2,10v17.5h-3.6Z"/>
        <path d="M119.2,112v-38.4h10.9v3.2h-6.9v13.9h6.5v3.3h-6.5v14.7h6.9v3.2h-10.9Z"/>
        <path d="M57,163.1c-1.6,0-2.7-.5-3.5-1.4s-1.3-2.2-1.5-3.8-.4-3.4-.4-5.5v-12c0-2,.2-3.8.5-5.4.3-1.6.9-2.9,1.8-3.8s2.2-1.4,3.8-1.4,1.5.3,2.2.8,1.1,1.1,1.5,1.9v-8.4h3.9v38.8h-3.9v-2.6c-.4,1.1-1.1,1.8-1.9,2.2-.8.4-1.6.6-2.5.6ZM58.3,159.9c.7,0,1.3-.2,1.7-.5.5-.3.8-.9,1.1-1.9.2-1,.4-2.4.4-4.3v-13.1c0-2.4-.2-4.1-.6-5.2-.4-1.1-1.2-1.7-2.5-1.7s-1.9.6-2.3,1.7c-.4,1.1-.6,2.9-.6,5.4v13.1c0,1.3,0,2.5.2,3.5s.4,1.8.8,2.3c.4.4,1,.7,1.8.7Z"/>
        <path d="M76.9,163.3c-.9,0-1.7-.2-2.5-.7-.8-.4-1.5-1.2-2-2.2s-.8-2.4-.8-4.1v-26.2h3.9v25.8c0,1.3.3,2.2.8,2.9.5.6,1.2.9,2.2.9s1.9-.4,2.5-1.1c.6-.7.9-1.7.9-2.9v-25.7h4v32.7h-4v-3.1c-.3,1-.9,1.9-1.7,2.6-.9.7-2,1.1-3.3,1.1Z"/>
        <path d="M102.8,162.9v-38.4h3.9v35.2h7v3.2h-10.9Z"/>
        <path d="M117.5,162.9v-38.4h3.9v38.4h-3.9Z"/>
        <path d="M126.4,162.9v-3.4l7.7-31.8h-7.2v-3.2h11.3v2.9l-7.7,32.2h7.5v3.2h-11.6Z"/>
        <path d="M142.7,162.9v-38.4h3.9v38.4h-3.9Z"/>
        <path d="M153.4,162.9v-38.4h10.9v3.2h-6.9v13.9h6.5v3.3h-6.5v14.7h6.9v3.2h-10.9Z"/>
        <path d="M176.1,163.3c-1.9,0-3.3-.5-4.4-1.4-1.1-.9-1.8-2.3-2.2-4.1s-.6-4-.6-6.6v-15.6c0-1.7.1-3.2.3-4.6s.6-2.6,1.1-3.7c.5-1,1.3-1.8,2.2-2.4,1-.6,2.2-.9,3.8-.9s2.7.3,3.7.9c.9.6,1.6,1.4,2.1,2.4s.8,2.2.9,3.6c.2,1.4.2,2.9.2,4.6v3.8h-3.9v-4c0-2.6-.2-4.5-.5-5.9s-1.2-2-2.5-2-2.3.7-2.7,2-.7,3.3-.7,5.8v16.1c0,2.1.1,3.8.3,5,.2,1.3.5,2.2,1,2.8s1.2.9,2.1.9c1.3,0,2.2-.7,2.5-2,.4-1.4.6-3.6.6-6.7v-3.7h3.9v3.7c0,2.6-.2,4.8-.6,6.6-.4,1.8-1.1,3.2-2.1,4.1-1.1.9-2.6,1.3-4.5,1.3Z"/>
    </g>
    <g class="logo-label isSecond" fill="#ffffff">
        <path d="M65.6,182.1l-2.8-6.4h1.3l2.5,5.8h-.7l2.5-5.8h1.2l-2.8,6.4h-1.2Z"/>
        <path d="M69.6,182.1l2.9-6.4h1.2l2.9,6.4h-1.2l-2.5-5.8h.5l-2.5,5.8h-1.3ZM71,180.6l.3-.9h3.5l.3.9h-4.1Z"/>
        <path d="M77.9,182.1v-6.4h1l4,4.9h-.5v-4.9h1.2v6.4h-1l-4-4.9h.5v4.9h-1.2Z"/>
        <path d="M85.8,182.1v-6.4h1l4,4.9h-.5v-4.9h1.2v6.4h-1l-4-4.9h.5v4.9h-1.2Z"/>
        <path d="M94.9,181.1h3.6v1h-4.8v-6.4h4.7v1h-3.5v4.4ZM94.8,178.4h3.2v1h-3.2s0-1,0-1Z"/>
        <path d="M102.3,182.2c-.5,0-1-.1-1.4-.2s-.8-.3-1.1-.6l.4-.9c.3.2.6.4,1,.5s.8.2,1.2.2.6,0,.8-.1.4-.2.5-.3.1-.3.1-.4c0-.2-.1-.4-.2-.5-.1-.1-.3-.2-.5-.3s-.5-.1-.7-.2c-.3-.1-.5-.1-.8-.2-.3-.1-.5-.2-.7-.3s-.4-.3-.5-.5-.2-.5-.2-.8.1-.7.3-1,.5-.5.9-.7.9-.3,1.5-.3.8,0,1.1.1c.4.1.7.2,1,.4l-.4.9c-.3-.2-.6-.3-.9-.4-.3-.1-.6-.1-.9-.1s-.6,0-.8.1-.4.2-.5.3-.1.3-.1.4c0,.2.1.4.2.5.1.1.3.2.5.3s.5.1.7.2.5.1.8.2c.3.1.5.2.7.3s.4.3.5.5.2.5.2.8-.1.7-.3,1-.5.5-.9.7-.9.4-1.5.4Z"/>
        <path d="M109.2,179.4v-1h2.5v1h-2.5Z"/>
        <path d="M116.7,182.1v-6.4h3c.8,0,1.4.2,1.8.5s.6.7.6,1.2-.1.6-.2.9l-.6.6c-.3.1-.6.2-.9.2l.2-.3c.4,0,.7.1,1,.2s.5.3.7.6.3.6.3.9c0,.6-.2,1-.6,1.3-.4.3-1,.5-1.9.5h-3.4v-.2ZM117.9,181.2h1.9c.4,0,.8-.1,1-.2.2-.1.4-.4.4-.7s-.1-.6-.4-.7c-.2-.1-.6-.2-1-.2h-2v-.9h1.8c.4,0,.7-.1,1-.2.2-.1.3-.4.3-.7s-.1-.5-.3-.7c-.2-.1-.5-.2-1-.2h-1.7v4.5Z"/>
        <path d="M124.1,182.1v-6.4h2.6c.6,0,1.1.1,1.5.3s.7.4.9.8.3.8.3,1.2-.1.9-.3,1.2-.5.6-.9.8-.9.3-1.5.3h-2l.5-.5v2.4h-1.1ZM125.3,179.8l-.5-.6h1.9c.5,0,.9-.1,1.2-.3s.4-.5.4-.9-.1-.7-.4-.9c-.3-.2-.7-.3-1.2-.3h-1.9l.5-.6v3.6ZM128.3,182.1l-1.6-2.3h1.3l1.6,2.3h-1.3Z"/>
        <path d="M132.5,181.1h3.6v1h-4.8v-6.4h4.7v1h-3.5v4.4ZM132.4,178.4h3.2v1h-3.2v-1Z"/>
        <path d="M139.2,182.1v-5.4h-2.1v-1h5.5v1h-2.1v5.4h-1.3Z"/>
        <path d="M142.7,182.1l2.9-6.4h1.2l2.9,6.4h-1.2l-2.5-5.8h.5l-2.5,5.8h-1.3ZM144,180.6l.3-.9h3.5l.3.9h-4.1Z"/>
        <path d="M153.8,182.2c-.5,0-1-.1-1.4-.2-.4-.2-.8-.4-1.1-.7s-.6-.6-.7-1.1c-.2-.4-.3-.8-.3-1.3s.1-.9.3-1.3c.2-.4.4-.8.7-1.1s.7-.5,1.1-.7c.4-.2.9-.2,1.4-.2s1,.1,1.5.3.8.4,1.1.8l-.8.7c-.3-.3-.5-.4-.8-.6-.3-.1-.6-.2-1-.2s-.6.1-.9.2c-.3.1-.5.3-.7.5s-.4.4-.5.7-.2.6-.2.9.1.6.2.9.3.5.5.7.5.4.7.5.6.2.9.2.6-.1.9-.2.6-.3.8-.5l.7.9c-.3.3-.7.5-1.2.6-.3.1-.7.2-1.2.2ZM155.2,181.2v-2.4h1.1v2.6l-1.1-.2Z"/>
        <path d="M158.4,182.1v-6.4h1l4,4.9h-.5v-4.9h1.2v6.4h-1l-4-4.9h.5v4.9h-1.2Z"/>
        <path d="M167.4,181.1h3.6v1h-4.8v-6.4h4.7v1h-3.5v4.4ZM167.4,178.4h3.2v1h-3.2v-1Z"/>
    </g>
    <path class="logo-fairy" d="M222.8,135.6l-22.3-43.9c-.1-.2-.3-.3-.5-.4l-12.4-1.2h0l-6.1-.6h-.3l-16.2,5.5,2-1q.1,0,.2-.1h.1c0-.1.1-.2.1-.2l11.9-28.9c.1-.3,0-.7-.3-.9l-9.6-4.8v-7.7l2.2.4h.1c.3,0,.5,0,.6-.4l2.8-5.9c0,0,.1-.2.1-.3l-.4-7.2h0c0,0-.4-2.1-.4-2.1-.1-.3-.3-.5-.5-.5l-3.9-.9c-.2,0-.4,0-.6.2l-16,14.3c-.3.2-.3.6-.1.9l2.6,3.5,2.8,10.9-27.1-29.2q-.1,0-.2-.2l-5.6-2.5-9.8-10.8q-.1,0-.2-.2l-30.9-16.1c-.2,0-.5,0-.7,0-.2.2-.3.4-.2.7,0,.3,1.6,6.3,5.8,10.8L51.6,0c-.2,0-.5,0-.7,0-.2.2-.3.5-.2.7,0,.2,7.8,20.8,24.9,39.1,12.7,13.5,32.6,28,60.7,29l1.3,6.9c0,.2.1.3.3.4l17.2,10.7v5.9c0,.4.3.7.6.7h.6l-.6,4.8-1.3,4.9c0,.2,0,.4.1.5s.2.3.4.3l18.9,8.2h.2c.1,0,.2,0,.3-.1l19-12.9,28.3,36.8c.1.2.3.3.5.3s.2,0,.4-.1c.3,0,.4-.4.3-.7ZM165.5,57.2l-2.4-1.2,4.9-5.4v7.9l-2.5-1.3ZM171.2,50.4l-2-.4v-1.1l4.2-8.3.3,4.5-2.5,5.3ZM169.8,36.1l3.2.7.3,1.3-5.3,10.3-4.3,4.8-1.9,2.1-5.1-2.6-2.2-3,15.3-13.6ZM165,58.4l3.3,1.7h.1l9.3,4.7-10.9,26.5-9.5-36.8,7.7,3.9ZM85.7,7.2l29.4,15.4,7.5,8.7-27.5-12.1c-5.5-2.6-8.3-9-9.4-12ZM76.7,39.2C62.4,23.9,54.7,7,52.6,2l42,18.5c0,0,0,0,.2,0h0l30.1,13.2h.1l5.6,2.5,27.5,29.6c-39.3,7.8-65.9-10.2-81.4-26.7ZM137.8,69h1.6c6.2,0,12.7-.7,19.6-2.1l.2.2,6.4,24.8-26.7-16.6-1.1-6.3ZM157.3,92.4h-.8v-4.4l7.7,4.7-6.9-.3ZM164,94l-6.8,3.5.5-3.7,6.3.2ZM173.9,111.1l-18-8,1-4,24.4-8.3,5.7.6h.1c0,.1,5.2,6.9,5.2,6.9l-18.4,12.8ZM194.1,98.3h0l-5.1-6.6,10.5,1,18.9,37.2-24.3-31.6Z"/>
</svg>