<?xml version="1.0" encoding="UTF-8"?>
<svg id="Calque_1" xmlns="http://www.w3.org/2000/svg" version="1.1" xmlns:xlink="http://www.w3.org/1999/xlink" viewBox="0 0 172.3 136.2">
  <!-- Generator: Adobe Illustrator 29.3.1, SVG Export Plug-In . SVG Version: 2.1.0 Build 151)  -->
  <defs>
    <style>
      .st0 {
        fill: url(#Dégradé_sans_nom);
      }
    </style>
    <linearGradient id="Dégradé_sans_nom" data-name="Dégradé sans nom" x1="0" y1="722.9" x2="172.2" y2="722.9" gradientTransform="translate(172.2 -654.8) rotate(-180) scale(1 -1)" gradientUnits="userSpaceOnUse">
      <stop offset="0" stop-color="#b17f4a"/>
      <stop offset=".4" stop-color="#fdca6f"/>
      <stop offset="1" stop-color="#fdd69a"/>
    </linearGradient>
  </defs>
  <path class="st0" d="M0,135.4c0,.3,0,.7.3.7q.2.1.4.1c.2,0,.4-.1.5-.3l28.3-36.8,19,12.9c.1,0,.2,0,.3,0h.2s18.9-8.2,18.9-8.2c.2,0,.3-.2.4-.3s.1-.3.1-.5l-1.3-4.9-.6-4.8h.6c.3,0,.6-.3.6-.7v-5.9s17.2-10.7,17.2-10.7c.2,0,.3-.2.3-.4l1.3-6.9c28.1-1,48-15.5,60.7-29C164.4,21.5,172.2.9,172.2.7c0-.2,0-.5-.2-.7h-.7s-38.2,16.8-38.2,16.8c4.2-4.5,5.8-10.5,5.8-10.8.1-.3,0-.5-.2-.7h-.7s-30.9,16.1-30.9,16.1c0,.1-.1.2-.2.2l-9.8,10.8-5.6,2.5c0,.1-.1.2-.2.2l-27.1,29.2,2.8-10.9,2.6-3.5c.2-.3.2-.7-.1-.9l-16-14.3c-.2-.2-.4-.2-.6-.2l-3.9.9c-.2,0-.4.2-.5.5l-.4,2.1h0l-.4,7.2c0,0,.1.3.1.3l2.8,5.9c.1.4.3.4.6.4h.1s2.2-.4,2.2-.4v7.7s-9.6,4.8-9.6,4.8c-.3.2-.4.6-.3.9l11.9,28.9s.1,0,.1.2h.1c0,0,.1,0,.2,0l2,1-16.2-5.5h-.3s-6.1.6-6.1.6h0l-12.4,1.2c-.2,0-.4.2-.5.4L0,135.6v-.2ZM54.9,58.5v-7.9s4.9,5.4,4.9,5.4l-2.4,1.2-2.5,1.3ZM49.2,45.1l.3-4.5,4.2,8.3v1.1s-2,.4-2,.4l-2.5-5.3ZM68.4,49.7l-2.2,3-5.1,2.6-1.9-2.1-4.3-4.8-5.3-10.3.3-1.3,3.2-.7,15.3,13.6ZM57.9,58.4l7.7-3.9-9.5,36.8-10.9-26.5,9.3-4.7h.1s3.3-1.7,3.3-1.7h0ZM127.8,19.2l-27.5,12.1,7.5-8.7,29.4-15.4c-1.1,3-3.9,9.4-9.4,12ZM146.2,39.1c-15.5,16.5-42.1,34.5-81.4,26.7l27.5-29.6,5.6-2.5h0s30.1-13.2,30.1-13.2h.2S170.3,2,170.3,2c-2.1,5-9.8,21.9-24.1,37.2h0ZM84,75.3l-26.7,16.6,6.4-24.8.2-.2c6.9,1.4,13.4,2.1,19.6,2.1h1.6s-1.1,6.3-1.1,6.3ZM58.7,92.7l7.7-4.7v4.4h-.8s-6.9.3-6.9.3ZM65.2,93.8l.5,3.7-6.8-3.5,6.3-.2ZM30.6,98.3s5.2-6.8,5.2-6.9h.1s5.7-.6,5.7-.6l24.4,8.3,1,4-18,8-18.4-12.8ZM28.8,98.3l-24.3,31.6,18.9-37.2,10.5-1-5.1,6.6h0Z"/>
</svg>