<svg xmlns="http://www.w3.org/2000/svg" x="0px" y="0px" viewBox="0 0 265.5 113.3" style="enable-background:new 0 0 265.5 113.3;" xml:space="preserve">
<style type="text/css">
	.st0{fill:url(#SVGID_1_);}
	path:not(.st0){fill:#FFFFFF;}
</style>
<g>
	<g>
		<path d="M0,93.1V54.7h6.6c2,0,3.6,0.4,4.7,1.3c1.1,0.9,1.9,2.1,2.3,3.7c0.4,1.6,0.6,3.5,0.6,5.7v16.7c0,2.6-0.3,4.7-0.8,6.4
			c-0.5,1.6-1.3,2.8-2.5,3.6s-2.7,1.1-4.6,1.1H0V93.1z M4,89.9h2.5c0.9,0,1.6-0.2,2.2-0.6c0.6-0.4,1-1.1,1.3-2.2
			c0.3-1.1,0.4-2.7,0.4-4.7V65.3c0-2.6-0.3-4.5-0.9-5.6C8.9,58.6,7.9,58,6.6,58H4V89.9z"/>
		<path d="M27.2,93.6c-1.9,0-3.4-0.4-4.4-1.3s-1.8-2.1-2.2-3.8S20,84.6,20,82V65.3c0-2.2,0.2-4.1,0.6-5.8c0.4-1.6,1.1-2.9,2.2-3.9
			c1.1-0.9,2.6-1.4,4.7-1.4c1.5,0,2.8,0.3,3.7,0.8s1.6,1.3,2.1,2.2c0.5,1,0.8,2.1,1,3.5s0.3,2.9,0.3,4.5V82c0,2.6-0.2,4.8-0.6,6.5
			c-0.4,1.7-1.1,3-2.2,3.8C30.5,93.2,29,93.6,27.2,93.6z M27.2,90.2c0.9,0,1.5-0.3,2-0.8s0.8-1.4,1-2.5s0.3-2.8,0.3-4.9V65.1
			c0-2.6-0.2-4.4-0.6-5.6c-0.4-1.2-1.2-1.8-2.5-1.8c-1.4,0-2.3,0.6-2.7,1.8c-0.5,1.2-0.7,3.1-0.7,5.6v17c0,2.1,0.1,3.7,0.3,4.9
			s0.5,2,1,2.5S26.3,90.2,27.2,90.2z"/>
		<path d="M40.5,93.1V54.7H45l6,31.4l5.7-31.4h4.5v38.4h-3.4V77.7l0.4-14.8l-5.6,29.8h-3.2l-5.9-29.8l0.4,14.8v15.4H40.5z"/>
		<path d="M65.4,93.1l6-38.4h4.5l6.6,38.4h-3.7l-1.2-7.6h-7.4l-1.1,7.6H65.4z M70.7,82.5H77l-3.2-21h-0.1L70.7,82.5z"/>
		<path d="M86.8,93.1V54.7h3.9v38.4H86.8z"/>
		<path d="M97.4,93.1V54.7h2.9l9.1,27.7L109,70.3V54.7h3.5v38.4h-3l-8.7-27.5l0.2,10v17.5H97.4z"/>
		<path d="M119.2,93.1V54.7h10.9v3.2h-6.9v13.9h6.5v3.3h-6.5v14.7h6.9V93h-10.9V93.1z"/>
		<path d="M148.2,93.3c-1.1,0-1.9-0.3-2.5-1s-0.9-1.6-1.1-2.8s-0.3-2.5-0.3-3.9V77c0-1.4,0.1-2.7,0.4-3.9s0.7-2.1,1.3-2.7
			c0.6-0.7,1.6-1,2.7-1c0.6,0,1.1,0.2,1.6,0.6c0.5,0.4,0.8,0.8,1,1.3v-6h2.8v27.8h-2.8v-1.9c-0.3,0.8-0.8,1.3-1.3,1.6
			S148.9,93.3,148.2,93.3z M149.1,91c0.5,0,0.9-0.1,1.2-0.3c0.3-0.2,0.6-0.7,0.8-1.4s0.3-1.7,0.3-3.1v-9.4c0-1.7-0.1-2.9-0.4-3.8
			s-0.9-1.2-1.8-1.2c-0.8,0-1.4,0.4-1.6,1.2c-0.3,0.8-0.4,2.1-0.4,3.9v9.4c0,0.9,0,1.8,0.1,2.5s0.3,1.3,0.5,1.6S148.6,91,149.1,91z"
			/>
		<path d="M162.5,93.5c-0.6,0-1.2-0.2-1.8-0.5c-0.6-0.3-1.1-0.8-1.5-1.6c-0.4-0.7-0.6-1.7-0.6-3V69.6h2.8v18.5
			c0,0.9,0.2,1.6,0.5,2.1c0.4,0.5,0.9,0.7,1.6,0.7c0.8,0,1.4-0.3,1.8-0.8s0.6-1.2,0.6-2.1V69.6h2.8V93h-2.8v-2.4
			c-0.2,0.7-0.6,1.3-1.2,1.9C164.2,93.2,163.5,93.5,162.5,93.5z"/>
		<path d="M185,93.1V54.7h3.9v35.2h7v3.2H185z"/>
		<path d="M199.7,93.1V54.7h3.9v38.4H199.7z"/>
		<path d="M208.6,93.1v-3.4l7.7-31.8h-7.2v-3.2h11.3v2.9l-7.7,32.2h7.5V93h-11.6V93.1z"/>
		<path d="M224.9,93.1V54.7h3.9v38.4H224.9z"/>
		<path d="M235.6,93.1V54.7h10.9v3.2h-6.9v13.9h6.5v3.3h-6.5v14.7h6.9V93h-10.9V93.1z"/>
		<path d="M258.3,93.6c-1.9,0-3.3-0.5-4.4-1.4s-1.8-2.3-2.2-4.1c-0.4-1.8-0.6-4-0.6-6.6V65.8c0-1.7,0.1-3.2,0.3-4.6
			c0.2-1.4,0.6-2.6,1.1-3.7c0.5-1,1.3-1.8,2.2-2.4c1-0.6,2.2-0.9,3.8-0.9c1.5,0,2.7,0.3,3.7,0.9c0.9,0.6,1.6,1.4,2.1,2.4
			s0.8,2.2,0.9,3.6c0.2,1.4,0.2,2.9,0.2,4.6v3.8h-3.9v-4c0-2.6-0.2-4.5-0.5-5.9s-1.2-2-2.5-2c-1.4,0-2.3,0.7-2.7,2
			c-0.5,1.3-0.7,3.3-0.7,5.8v16.1c0,2.1,0.1,3.8,0.3,5c0.2,1.3,0.5,2.2,1,2.8c0.5,0.6,1.2,0.9,2.1,0.9c1.3,0,2.2-0.7,2.5-2
			c0.4-1.4,0.6-3.6,0.6-6.7v-3.7h3.9v3.7c0,2.6-0.2,4.8-0.6,6.6c-0.4,1.8-1.1,3.2-2.1,4.1C261.7,93.1,260.2,93.6,258.3,93.6z"/>
	</g>
</g>
<g>
	<path d="M86.2,113.1l-2.8-6.4h1.3l2.5,5.8h-0.7l2.5-5.8h1.2l-2.8,6.4H86.2z"/>
	<path d="M90.2,113.1l2.9-6.4h1.2l2.9,6.4H96l-2.5-5.8H94l-2.5,5.8H90.2z M91.5,111.6l0.3-0.9h3.5l0.3,0.9H91.5z"/>
	<path d="M98.4,113.1v-6.4h1l4,4.9h-0.5v-4.9h1.2v6.4h-1l-4-4.9h0.5v4.9H98.4z"/>
	<path d="M106.3,113.1v-6.4h1l4,4.9h-0.5v-4.9h1.2v6.4h-1l-4-4.9h0.5v4.9H106.3z"/>
	<path d="M115.4,112.1h3.6v1h-4.8v-6.4h4.7v1h-3.5V112.1z M115.3,109.3h3.2v1h-3.2V109.3z"/>
	<path d="M122.8,113.2c-0.5,0-1-0.1-1.4-0.2s-0.8-0.3-1.1-0.6l0.4-0.9c0.3,0.2,0.6,0.4,1,0.5s0.8,0.2,1.2,0.2c0.3,0,0.6,0,0.8-0.1
		s0.4-0.2,0.5-0.3s0.1-0.3,0.1-0.4c0-0.2-0.1-0.4-0.2-0.5c-0.1-0.1-0.3-0.2-0.5-0.3s-0.5-0.1-0.7-0.2c-0.3-0.1-0.5-0.1-0.8-0.2
		c-0.3-0.1-0.5-0.2-0.7-0.3s-0.4-0.3-0.5-0.5s-0.2-0.5-0.2-0.8s0.1-0.7,0.3-1s0.5-0.5,0.9-0.7s0.9-0.3,1.5-0.3c0.4,0,0.8,0,1.1,0.1
		c0.4,0.1,0.7,0.2,1,0.4l-0.4,0.9c-0.3-0.2-0.6-0.3-0.9-0.4c-0.3-0.1-0.6-0.1-0.9-0.1c-0.3,0-0.6,0-0.8,0.1s-0.4,0.2-0.5,0.3
		s-0.1,0.3-0.1,0.4c0,0.2,0.1,0.4,0.2,0.5c0.1,0.1,0.3,0.2,0.5,0.3s0.5,0.1,0.7,0.2s0.5,0.1,0.8,0.2c0.3,0.1,0.5,0.2,0.7,0.3
		s0.4,0.3,0.5,0.5s0.2,0.5,0.2,0.8s-0.1,0.7-0.3,1c-0.2,0.3-0.5,0.5-0.9,0.7S123.4,113.2,122.8,113.2z"/>
	<path d="M129.8,110.3v-1h2.5v1H129.8z"/>
	<path d="M137.2,113.1v-6.4h3c0.8,0,1.4,0.2,1.8,0.5s0.6,0.7,0.6,1.2c0,0.3-0.1,0.6-0.2,0.9c-0.2,0.2-0.4,0.4-0.6,0.6
		c-0.3,0.1-0.6,0.2-0.9,0.2l0.2-0.3c0.4,0,0.7,0.1,1,0.2s0.5,0.3,0.7,0.6s0.3,0.6,0.3,0.9c0,0.6-0.2,1-0.6,1.3s-1,0.5-1.9,0.5h-3.4
		V113.1z M138.4,112.1h1.9c0.4,0,0.8-0.1,1-0.2c0.2-0.1,0.4-0.4,0.4-0.7s-0.1-0.6-0.4-0.7c-0.2-0.1-0.6-0.2-1-0.2h-2v-0.9h1.8
		c0.4,0,0.7-0.1,1-0.2c0.2-0.1,0.3-0.4,0.3-0.7s-0.1-0.5-0.3-0.7c-0.2-0.1-0.5-0.2-1-0.2h-1.7L138.4,112.1L138.4,112.1z"/>
	<path d="M144.7,113.1v-6.4h2.6c0.6,0,1.1,0.1,1.5,0.3s0.7,0.4,0.9,0.8s0.3,0.8,0.3,1.2c0,0.5-0.1,0.9-0.3,1.2
		c-0.2,0.3-0.5,0.6-0.9,0.8s-0.9,0.3-1.5,0.3h-2l0.5-0.5v2.4h-1.1V113.1z M145.8,110.8l-0.5-0.6h1.9c0.5,0,0.9-0.1,1.2-0.3
		s0.4-0.5,0.4-0.9s-0.1-0.7-0.4-0.9s-0.7-0.3-1.2-0.3h-1.9l0.5-0.6V110.8z M148.9,113.1l-1.6-2.3h1.3l1.6,2.3H148.9z"/>
	<path d="M153,112.1h3.6v1h-4.8v-6.4h4.7v1H153L153,112.1L153,112.1z M152.9,109.3h3.2v1h-3.2V109.3z"/>
	<path d="M159.7,113.1v-5.4h-2.1v-1h5.5v1H161v5.4H159.7z"/>
	<path d="M163.2,113.1l2.9-6.4h1.2l2.9,6.4H169l-2.5-5.8h0.5l-2.5,5.8H163.2z M164.5,111.6l0.3-0.9h3.5l0.3,0.9H164.5z"/>
	<path d="M174.3,113.2c-0.5,0-1-0.1-1.4-0.2c-0.4-0.2-0.8-0.4-1.1-0.7c-0.3-0.3-0.6-0.6-0.7-1.1c-0.2-0.4-0.3-0.8-0.3-1.3
		s0.1-0.9,0.3-1.3c0.2-0.4,0.4-0.8,0.7-1.1c0.3-0.3,0.7-0.5,1.1-0.7s0.9-0.2,1.4-0.2s1,0.1,1.5,0.3s0.8,0.4,1.1,0.8l-0.8,0.7
		c-0.3-0.3-0.5-0.4-0.8-0.6c-0.3-0.1-0.6-0.2-1-0.2c-0.3,0-0.6,0.1-0.9,0.2c-0.3,0.1-0.5,0.3-0.7,0.5s-0.4,0.4-0.5,0.7
		s-0.2,0.6-0.2,0.9c0,0.3,0.1,0.6,0.2,0.9s0.3,0.5,0.5,0.7s0.5,0.4,0.7,0.5s0.6,0.2,0.9,0.2s0.6-0.1,0.9-0.2s0.6-0.3,0.8-0.5
		l0.7,0.9c-0.3,0.3-0.7,0.5-1.2,0.6C175.2,113.1,174.8,113.2,174.3,113.2z M175.7,112.2v-2.4h1.1v2.6L175.7,112.2z"/>
	<path d="M178.9,113.1v-6.4h1l4,4.9h-0.5v-4.9h1.2v6.4h-1l-4-4.9h0.5v4.9H178.9z"/>
	<path d="M188,112.1h3.6v1h-4.8v-6.4h4.7v1H188L188,112.1L188,112.1z M187.9,109.3h3.2v1h-3.2V109.3z"/>
</g>
<linearGradient id="SVGID_1_" gradientUnits="userSpaceOnUse" x1="83.3" y1="104.2521" x2="178.4444" y2="104.2521" gradientTransform="matrix(1 0 0 -1 0 141.9729)">
	<stop  offset="0" style="stop-color:#B17F4A"/>
	<stop  offset="0.3524" style="stop-color:#FDCA6F"/>
	<stop  offset="1" style="stop-color:#FDD69A"/>
</linearGradient>
<path class="st0" d="M178.4,75l-12.3-24.3c-0.1-0.1-0.2-0.2-0.3-0.2l-6.9-0.6l0,0l-3.4-0.4c-0.1,0-0.1,0-0.2,0l-9,3l1.1-0.6h0.1l0,0
	l0,0l0,0c0,0,0,0,0.1-0.1c0,0,0.1,0,0.1-0.1l6.6-16c0.1-0.2,0-0.4-0.2-0.5l-5.3-2.7v-4.2l1.2,0.2c0,0,0,0,0.1,0s0.3-0.1,0.3-0.2
	l1.6-3.2c0-0.1,0-0.1,0-0.2l-0.2-4l0,0l0,0l-0.2-1.1c0-0.1-0.1-0.2-0.3-0.3l-2.2-0.5c-0.1,0-0.2,0-0.3,0.1l-8.9,7.9
	c-0.1,0.1-0.2,0.3-0.1,0.5l1.4,1.9l1.6,6l-15-16.2l-0.1-0.1l-3.1-1.4l-5.2-6l-0.1-0.1l-17.1-9c-0.1-0.1-0.3-0.1-0.4,0
	c-0.1,0.1-0.2,0.2-0.1,0.4c0,0.2,0.9,3.5,3.2,6L83.8,0c-0.1-0.1-0.3,0-0.4,0.1c-0.1,0.1-0.1,0.3-0.1,0.4S87.6,12,97.1,22.1
	c7,7.5,18.1,15.5,33.6,16l0.7,3.8c0,0.1,0.1,0.2,0.2,0.2l9.5,5.9v3.3c0,0.2,0.2,0.4,0.4,0.4h0.3l-0.3,2.7l-0.7,2.7
	c0,0.1,0,0.2,0,0.3c0.1,0.1,0.1,0.1,0.2,0.2l10.4,4.5h0.1c0.1,0,0.1,0,0.2,0l10.5-7.2l15.7,20.4c0.1,0.1,0.2,0.1,0.3,0.1
	c0.1,0,0.1,0,0.2-0.1C178.4,75.4,178.5,75.2,178.4,75z M146.7,31.6l-1.3-0.7l2.7-3v4.4L146.7,31.6z M149.9,27.9l-1.1-0.2v-0.6
	l2.3-4.6l0.2,2.5L149.9,27.9z M149.1,19.9l1.7,0.4L151,21l-2.9,5.7l-2.4,2.7l-1,1.1l-2.8-1.4l-1.2-1.7L149.1,19.9z M146.5,32.3
	l1.8,0.9l0,0l5.1,2.6l-6,14.6l-5.3-20.3L146.5,32.3z M102.6,4l16.2,8.5l4.2,4.8l-15.2-6.7C104.8,9.2,103.2,5.6,102.6,4z M97.6,21.6
	C89.7,13.2,85.4,3.8,84.3,1l23.2,10.2h0.1l0,0l16.6,7.3l0,0l3.1,1.4l15.2,16.4C120.9,40.7,106.2,30.8,97.6,21.6z M131.4,38.2
	c0.3,0,0.6,0,0.9,0c3.4,0,7-0.4,10.9-1.2l0.1,0.1l3.6,13.7l-14.7-9.2L131.4,38.2z M142.2,51.1L142.2,51.1
	C142.2,51.1,142.1,51.1,142.2,51.1h-0.4v-2.4l4.2,2.6L142.2,51.1z M145.9,52l-3.7,1.9l0.3-2.1L145.9,52z M151.4,61.4l-9.9-4.4
	l0.6-2.2l13.5-4.6l3.2,0.3l0.1,0.1l2.9,3.8L151.4,61.4z M162.5,54.3L162.5,54.3l-2.8-3.7l5.8,0.5l10.4,20.6L162.5,54.3z"/>
</svg>
